<svg height="201" viewBox="0 0 709 201" width="709" xmlns="http://www.w3.org/2000/svg"><g fill="none" fill-rule="evenodd"><path d="m183.63 32.45-88.64-32.16c-1.02-.37-2.68-.37-3.7 0l-86.2 31.28-.04.06c-2.47 1.03-4.21 3.46-4.22 6.3v.01 18.64l91.64-33.25c.51-.18 1.35-.18 1.83 0l25.76 9.33c.51.18.51.48-.01.67l-119.23 43.27v23.52l.04.01 182.77-66.35c1.02-.36 1.02-.96 0-1.33z" fill="#141313"/><path d="m33.14 88.44-32.36 11.73 92.32 33.55 32.38-11.75z" fill="#232323"/><path d="m60.6 78.45 92.38 33.54 32.34-11.73-92.32-33.55z" fill="#232323"/><g fill="#141313"><path d="m185.32 162.47s.01-.02.01-.03c0 0-.01-.02-.01-.03v-18.74l-91.78 33.3c-.51.18-1.35.18-1.83 0l-25.56-9.26c-.5-.18-.5-.48.02-.67l119.16-43.24v-23.5l-.02-.01-182.8 66.34c-1.02.37-1.02.97 0 1.34l88.56 32.1c1.02.37 2.68.36 3.69 0l86.14-31.26c.12-.05.24-.08.36-.13l.18-.07.07-.1c2.07-1.04 3.49-3.08 3.7-5.5l.11-.16z"/><g transform="translate(263 29)"><path d="m34.17 63.33c-7.83-1.95-12.96-3.55-12.99-7.78-.03-5.82 6.58-8.51 12.73-8.55 5.45-.03 10.82 1.91 15.97 5.77l1.06.8 9.53-13.39-.95-.76c-7.33-5.87-16.31-8.81-26.71-8.75-14.5.09-30.05 8.2-29.95 25.81.06 9.82 6.59 17.13 18.89 21.15 2.79.92 5.62 1.63 8.36 2.31 8.12 2.02 15.13 3.77 15.17 9.57.03 5.3-6.19 8.51-12.23 8.55-7.49.04-15.19-2.79-22.27-8.21l-1.08-.83-9.51 13.76.95.75c9.12 7.28 20.01 10.93 32.33 10.86 14.68-.09 30.22-8.99 30.13-25.31-.08-16.2-14.92-22.1-29.43-25.75z"/><path d="m81.22.3h17.84v39.3c5.68-6.16 14.27-8.92 22.71-8.92 20.11 0 32.92 13.95 32.92 34.87v47.52h-17.84v-47.19c0-8.76-6.49-18.16-18.49-18.16-9.08 0-16.05 4.7-19.3 14.27v51.09h-17.84z"/><g fill-rule="nonzero"><path d="m233.61 107.22c-5.68 4.54-13.14 7.14-21.73 7.14-24 0-41.68-18.16-41.68-41.84s17.68-41.84 41.68-41.84c8.59 0 16.06 2.76 21.73 7.3v-6h17.84v81.09h-14.65zm0-20.92v-27.57c-4.38-6.65-12.65-11.03-21.57-11.03-13.78 0-23.52 10.7-23.52 24.81s9.73 24.81 23.52 24.81c8.92.01 17.19-4.37 21.57-11.02z"/><path d="m271.98 31.97h14.11l3.73 6c5.51-4.54 13.14-7.3 21.73-7.3 24 0 41.68 18.16 41.68 41.84s-17.68 41.84-41.68 41.84c-8.59 0-16.22-2.59-21.73-7.14v37.69h-17.84zm17.84 26.76v27.57c4.22 6.65 12.49 11.03 21.57 11.03 13.78 0 23.52-10.7 23.52-24.81s-9.73-24.81-23.52-24.81c-9.09-.01-17.36 4.37-21.57 11.02z"/><path d="m365.49 72.52c0-23.68 17.84-41.84 41.52-41.84 22.54 0 37.63 15.89 38.76 41.84v4.87h-61.79c1.78 11.51 11.19 19.3 23.35 19.3 9.73 0 16.87-4.54 21.08-9.24l12 12.81c-6.97 8.11-18.81 14.11-33.08 14.11-24-.01-41.84-18.17-41.84-41.85zm18.97-8.92h41.68c-2.11-11.03-9.73-16.54-20.43-16.54-9.57 0-18.33 6.32-21.25 16.54z"/></g></g></g></g></svg>